Patient4_TMGait_0pt6_01_right_35_EMG.mot
version=1
nRows=26
nColumns=33
inDegrees=no
endheader
time	1LAddLong	2LGlutMax	3LGlutMed	4LIliopsoas	5LSemiMemb	6LBicFemLong	7LRecFem	8LVastMed	9LVastLat	10LGasMed	11LTibAnt	12lTibPost	13LPeroneusLong	14LSol	15LExtDigLong	16LFlexDigLong	17RAddLong	18RGlutMax	19RGlutMed	20RIliopsoas	21RSemiMemb	22RBicFemLong	23RRecFem	24RVastMed	25RVastLat	26RGasMed	27RTibAnt	28RTibPost	29RPeroneusLong	30RSol	31RExtDigLong	32RFlexDigLong
42.86	0.039673	-0.009003	-0.057373	-0.002899	0.080872	0.17807	0.015869	-0.018158	0.08728	-0.057831	-0.006561	-0.03067	-0.11887	0.1181	0.001373	-0.041199	-0.034943	-0.37308	-0.056915	-0.089111	0.093994	0.062561	-0.21042	0.073395	-0.002594	0.014038	0.007477	-0.014343	-0.08728	0.17777	-0.003967	-0.024414
42.861	0.043945	0.030365	-0.079041	0.016785	0.18921	0.15182	0.063019	-0.003052	0.080261	-0.04303	-0.009155	-0.044861	-0.18875	0.067749	0.011444	-0.041046	-0.091095	-0.28885	-0.084534	-0.11383	0.13107	0.059814	-0.20218	0.092773	-0.003815	0.016632	0.029297	-0.008392	-0.11948	0.13672	-0.001831	-0.023499
42.862	0.034637	0.036926	-0.0177	0.012665	0.15579	0.10544	0.055542	-0.007019	-0.010986	-0.026093	-0.003052	-0.036774	-0.26977	0.043182	0.02533	-0.019684	-0.10498	-0.2861	-0.084229	-0.049438	0.11658	0.049133	-0.24735	0.045013	-0.030518	0.023651	0.026855	-0.00885	-0.14893	0.12589	-0.00351	-0.023499
42.863	0.037079	0.036621	0.021057	-0.020447	0.10956	-0.067291	0.10803	0.007782	-0.10788	-0.021667	0.016327	-0.045624	-0.22614	0.021515	0.012054	-0.015411	-0.095215	-0.32623	-0.10971	0.02182	0.014496	0.10757	-0.27344	0.039368	-0.009155	0.021667	0.027161	-0.008392	-0.16617	0.048981	-0.004578	-0.021973
42.864	0.024414	0.075073	-0.01358	-0.012207	0.035553	-0.23972	0.057526	0.002747	-0.1648	-0.026245	-0.003357	-0.056763	-0.057983	0.020447	-0.003967	-0.0177	-0.054779	-0.37125	-0.10468	0.053406	-0.051575	0.15259	-0.26123	0.018921	-0.01236	0.023956	0.033722	-0.006409	-0.11597	0.018616	-0.002899	-0.030823
42.865	0.025635	0.10971	0.056458	0.015411	0.00824	-0.29388	0.072937	-0.005493	-0.14938	-0.033264	-0.00885	-0.052032	-0.061035	-0.007172	0.007019	-0.000305	0.005341	-0.24841	-0.08667	0.036926	-0.055542	0.06485	-0.2243	-0.019073	-0.015564	0.014496	0.009308	-0.00885	0.032196	-0.00946	-0.010071	-0.028839
42.866	0.000153	0.053253	0.057068	0.044098	-0.003662	-0.25497	0.11047	-0.013885	-0.12466	-0.011597	-0.010681	-0.063019	-0.089417	-0.035706	-0.001373	-0.009155	0.050964	-0.28534	-0.042114	0.042725	-0.067902	0.02594	-0.28015	-0.014801	0.004425	-0.002594	0.007019	-0.002136	0.10773	-0.027161	-0.004883	-0.035553
42.867	-0.00885	0.061646	0.039978	0.028076	0.004883	-0.27252	0.177	0.001221	-0.13062	-0.005188	0.001526	-0.057831	-0.1799	-0.030212	0.01297	-0.003815	0.06958	-0.35461	-0.015869	0.061951	-0.1088	0.065613	-0.27817	-0.031586	-0.000916	-0.023651	0.018463	-0.00351	0.062714	0.040283	-0.001984	-0.02533
42.868	-0.011749	0.11993	0.063019	0.011292	-0.040283	-0.35187	0.083771	0.015717	-0.10071	0.014343	0.009003	-0.058746	-0.088501	-0.044556	0.037842	-0.003662	0.043793	-0.26215	-0.06546	0.054321	-0.088654	0.10803	-0.24521	-0.064087	0.005188	-0.0354	0.011139	-0.001068	0.027924	0.13382	-0.00473	-0.020752
42.869	-0.013733	0.12207	0.026398	0.00061	-0.11353	-0.12466	0.013123	0.00885	-0.04364	-0.000305	-0.011902	-0.062103	-0.008545	-0.015259	0.10101	0.01297	0.025177	-0.37552	-0.022583	0.005341	0.021515	0.25681	-0.21606	-0.021362	0.007172	-0.026703	-0.017853	-0.001678	0.018005	0.14923	-0.00946	-0.028229
42.87	-0.02655	0.15823	0.061493	-0.00824	-0.19134	0.12161	0.015717	0.007782	0.053253	-0.007019	-0.000153	-0.06485	-0.2179	0.00351	0.082397	0.011749	0.010376	-0.35004	-0.02182	-0.014191	0.20203	0.43823	-0.20645	0.048218	0.007019	-0.029755	-0.024109	-0.003204	0.016022	0.14481	-0.002899	-0.032654
42.871	-0.030975	0.22659	0.038147	-0.002136	-0.26169	0.15595	0.080872	0.011749	0.061493	0.022278	-0.005646	-0.053101	-0.46768	-0.025482	0.046539	0.010376	0.02533	-0.28778	-0.10849	0.011444	0.23621	0.38849	-0.14267	0.042572	-0.001221	-0.027618	-0.026398	-0.002899	-0.005646	-0.002441	-0.002441	-0.022583
42.872	-0.028076	0.29648	0.02594	0.011444	-0.30838	0.028992	0.12039	0.010681	0.082703	0.053406	-0.006256	-0.048676	-0.82932	-0.035248	-0.002441	0.021667	-0.014343	-0.34409	-0.090179	-0.027008	0.072937	0.29511	-0.16937	0.043182	-0.019073	-0.014038	0.076141	-0.001373	-0.057068	-0.16449	-0.004578	-0.028076
42.873	-0.019073	0.26916	0.073547	0.001068	-0.1709	-0.10468	0.13138	0.001373	0.07782	0.0737	-0.01358	-0.044098	0.19043	-0.078888	-0.089417	0.019989	0.012054	-0.33722	-0.08316	-0.014038	-0.081177	0.12314	-0.16892	0.056915	-0.013428	-0.018005	0.18463	0.001526	-0.13855	-0.16251	-0.001678	-0.025787
42.874	-0.01236	0.29053	0.066986	-0.01709	0.080414	-0.29694	0.11215	0.003815	0.020142	0.027008	-0.052643	-0.035553	1.5166	-0.095673	-0.1564	0.009613	0.062103	-0.33112	-0.10681	-0.04303	0.023041	0.002899	-0.15182	0.011444	-0.023041	-0.003967	0.37262	0.002289	-0.078735	0.015259	-0.005188	-0.019989
42.875	-0.001068	0.27008	0.15915	0.006866	0.018463	-0.14297	0.059662	0.031281	-0.063782	0.016174	-0.025482	-0.039825	0.37033	-0.051575	-0.14084	0.00473	0.077515	-0.32974	-0.083618	-0.037079	0.16556	0.010681	-0.15411	0.018463	-0.029449	0	0.42053	0.002899	0.13931	0.090179	-0.000305	-0.008545
42.876	-0.007019	0.21225	0.10513	0.004883	-0.046234	0.012207	0.009613	0.011292	-0.084686	0.007935	0.00946	-0.032654	-0.98023	-0.10788	-0.17654	-0.026245	0.03479	-0.32379	-0.068665	0.032501	0.18326	0.070343	-0.24979	0.005035	-0.02655	0.001984	-0.17273	0.000305	0.11459	-0.082703	-0.003357	-0.011292
42.877	0.014038	0.29526	0.16312	0.010834	-0.021515	-0.079651	-0.036316	-0.017548	-0.02655	0.001373	0.001984	-0.026245	-1.0153	-0.2417	-0.34637	-0.035706	-0.003357	-0.32501	-0.12466	0.039368	0.035095	0.074005	-0.26825	0.043945	-0.022888	0.003967	-0.19241	0.004272	0.075836	-0.19257	0.003815	-0.012054
42.878	0.018921	0.29404	0.12817	0.01358	0.003357	0.058746	-0.050354	-0.017395	-0.011139	-0.071411	-0.013123	-0.014954	-0.32715	-0.18906	-0.24582	-0.041809	-0.062256	-0.32288	-0.088959	0.027618	-0.029449	0.052338	-0.31815	0.067291	-0.006256	-0.003815	0.045166	0.002441	0.10223	-0.083618	-0.000916	-0.011292
42.879	0.007782	0.30792	0.045166	0.013275	0.011597	-0.1268	-0.05127	-0.020447	-0.004883	-0.15839	0.003967	-0.014343	-0.39032	-0.065155	-0.040283	-0.063934	-0.086975	-0.32455	-0.16357	0.004272	0.11719	0.078735	-0.34531	0.10956	0.023193	-0.00885	0.18219	0.000458	0.067902	0.020294	-0.002136	-0.016479
42.88	0.003204	0.19501	0.042572	0.011902	-0.07019	-0.077057	-0.016022	-0.010681	-0.06546	-0.09613	-0.004578	0.001221	-0.30884	-0.093994	-0.060883	-0.082397	-0.088654	-0.30716	-0.15884	-0.090332	0.23529	0.026398	-0.31433	0.1033	0.013123	-0.008545	0.10346	0.001221	0.10284	-0.016479	-0.005341	-0.013733
42.881	0.004425	0.076141	0.059662	0.013275	-0.10773	-0.015259	0.04303	-0.006561	-0.12726	-0.004425	-0.007324	0.012054	-0.059509	-0.16159	-0.068054	-0.070801	-0.085144	-0.2829	-0.19165	-0.12421	0.14496	-0.046844	-0.33417	0.097809	0.012054	-0.00473	-0.05188	0.001831	0.21301	-0.23392	-0.005798	-0.017548
42.882	0.014343	0.050964	0.056915	0.000763	-0.005646	-0.039673	0.03418	-0.017242	-0.23529	0.052795	-0.009918	0.018616	-0.048523	-0.12924	0.005798	-0.068817	-0.071411	-0.28625	-0.12192	-0.10666	-0.006866	-0.039063	-0.29388	0.061798	0.022125	0.006256	-0.35736	0.001373	0.27252	-0.3244	-0.003052	-0.005493
42.883	0.041809	0.008087	-0.053558	0.00885	0.18036	-0.23285	0.030518	-0.020599	-0.1767	0.12177	0.005798	0.013275	0.023499	-0.08606	0.11063	-0.059967	-0.029602	-0.26276	-0.16342	-0.047607	0.045929	0.044708	-0.2977	0.11429	0.018463	0.002747	-0.57983	0.002289	0.2684	-0.22995	-0.005035	-0.002747
42.884	0.041199	-0.050354	-0.08606	0.006409	0.27191	-0.26871	0.033112	-0.009918	-0.019531	0.1471	0.010986	0.016785	0.049744	-0.078278	0.13336	-0.037842	0.005798	-0.25055	-0.17288	0.06424	0.07782	0.10834	-0.30594	0.045013	0.021973	-0.01297	-0.37476	0.001831	0.21042	-0.028381	-0.00885	-0.011139
42.885	0.040588	-0.034943	-0.089874	0.008392	0.2301	0.019073	0.032959	0.006714	-0.034027	0.112	0.005188	0.026245	0.075073	-0.094757	0.07843	-0.008087	0.013428	-0.29144	-0.15549	0.15457	0.073395	0.15396	-0.24185	0.03418	0.002289	-0.006561	-0.15518	-0.002289	0.20203	0.088348	-0.003204	-0.006256
